<svg width="120" height="120" xmlns="http://www.w3.org/2000/svg"><defs><filter id="prefix__b" x="-.004" y="-.136" width="1.008" height="1.272" color-interpolation-filters="sRGB"><feGaussianBlur stdDeviation=".059"/></filter><path id="prefix__a" d="M20.471 42.58h83.113v46.265H20.471z"/></defs><path transform="skewX(6.467) scale(1 .99364)" fill="red" stroke="#d4d4d4" stroke-width="3.217" stroke-linecap="round" stroke-linejoin="round" d="M2.739 33.06h100.353v59.68H2.739z"/><g aria-label="XSS" font-size="46.798" fill="#d4d4d4" stroke-width=".975"><path d="M45.558 79.523h-4.684l-5.652-14.782-11.847 14.782h-4.363l14.52-17.738-6.855-16.308h4.592l5.302 13.351 10.82-13.351h4.362L38.282 61.689zM70.664 70.416q-.928 4.53-4.615 7.057Q62.362 80 56.989 80q-2.756 0-5.01-.43-2.255-.428-3.66-1.191l.84-4.101q1.497.763 3.804 1.383 2.353.62 4.971.62 3.629 0 5.815-1.479 2.185-1.478 2.703-4.005.342-1.669-.112-2.813-.455-1.145-1.959-2.098-1.504-.954-4.208-2.098-3.903-1.574-5.547-3.863-1.644-2.289-.833-6.246.547-2.67 2.28-4.626 1.732-1.955 4.29-3.004Q62.92 45 66.042 45q2.663 0 4.806.525 2.143.524 3.85 1.382l-2.038 3.672q-1.543-.763-3.456-1.287-1.913-.525-4.026-.525-3.077 0-4.922 1.383-1.835 1.335-2.294 3.576-.352 1.717.102 2.861.455 1.145 1.821 2.098 1.376.906 3.835 1.908 2.668 1.096 4.38 2.384 1.766 1.24 2.415 3.004.695 1.764.148 4.435zM95.878 70.416q-.928 4.53-4.615 7.057Q87.576 80 82.203 80q-2.756 0-5.01-.43-2.254-.428-3.66-1.191l.84-4.101q1.498.763 3.805 1.383 2.353.62 4.97.62 3.629 0 5.815-1.479 2.186-1.478 2.704-4.005.341-1.669-.113-2.813-.454-1.145-1.958-2.098-1.504-.954-4.21-2.098-3.902-1.574-5.546-3.863-1.644-2.289-.833-6.246.547-2.67 2.28-4.626 1.732-1.955 4.29-3.004Q88.134 45 91.257 45q2.664 0 4.807.525 2.143.524 3.85 1.382l-2.038 3.672q-1.543-.763-3.457-1.287-1.913-.525-4.026-.525-3.077 0-4.922 1.383-1.835 1.335-2.294 3.576-.352 1.717.103 2.861.454 1.145 1.82 2.098 1.376.906 3.835 1.908 2.669 1.096 4.38 2.384 1.767 1.24 2.415 3.004.695 1.764.148 4.435z"/></g><path transform="matrix(.99818 0 -.29911 1.67193 -7.198 -51.793)" fill="#fff" stroke="#f4f4f4" stroke-width=".418" stroke-linecap="round" filter="url(#prefix__b)" d="M44.148 67.128h87.347v2.568H44.148z"/></svg>